<svg class="svg_21efd88b67__icon" viewBox="0 0 1485 1024" xmlns="http://www.w3.org/2000/svg" width="34.80472" height="24"><path d="M1243.625 633.444l-161.107-269.618c-3.034-6.358-8.38-10.26-14.593-10.26H401.248c-6.068 0-11.559 3.18-14.593 10.26L225.549 633.444c-1.59 1.59-1.59 3.179-1.59 6.357v329.87c0 10.26 6.069 16.617 16.183 16.617h989.756c9.97 0 16.183-6.357 16.183-16.616v-329.87c-0.867-2.457-0.867-4.046-2.456-6.358zM411.218 387.522h647.604l145.068 236.24H847.722c-9.97 0-16.183 6.359-16.183 16.617 0 54.762-43.78 99.843-96.663 99.843s-96.664-45.226-96.664-99.843c0-10.258-6.069-16.616-16.183-16.616H265.283l145.935-236.241z m801.775 566.256H256.18V657.14h351.4c8.38 65.02 62.852 116.603 127.295 116.603S854.513 722.161 862.17 657.14h351.544v296.493h-0.722zM149.547 796.718v-18.206c0-4.769-3.901-8.67-8.38-8.67s-8.38 3.901-8.38 8.67v18.205h-17.629c-4.623 0-8.38 3.902-8.38 8.67s3.901 8.67 8.38 8.67h17.628v18.205c0 4.768 3.901 8.67 8.38 8.67 4.624 0 8.381-3.902 8.381-8.67v-18.206h17.628c4.624 0 8.38-3.901 8.38-8.67s-3.901-8.669-8.38-8.669h-17.628z m1157.075-360.792h26.875c6.936 0 13.004 6.358 13.004 13.438 0 7.947-5.346 13.437-13.004 13.437h-26.875v27.742c0 7.08-6.068 13.438-13.004 13.438s-13.004-5.49-13.004-13.438v-27.742h-26.875c-6.936 0-13.004-6.357-13.004-13.437 0-7.947 5.346-13.438 13.004-13.438h26.875v-27.742c0-7.08 6.069-13.438 13.004-13.438 7.658 0 13.004 5.491 13.004 13.438v27.742z m94.352 118.193h16.905c4.624 0 8.38 3.901 8.38 8.67s-3.9 8.669-8.38 8.669h-16.905v17.483c0 4.768-3.901 8.67-8.38 8.67-4.624 0-8.38-3.902-8.38-7.948V572.18h-16.906c-4.624 0-8.38-3.901-8.38-8.67s3.9-8.669 8.38-8.669h16.905v-18.205c0-4.769 3.902-8.67 8.38-8.67 4.624 0 8.381 3.901 8.381 8.67v17.483zM171.8 413.819v-27.742c0-7.947-6.07-13.438-13.005-13.438-7.658 0-13.004 6.358-13.004 13.438v27.02h-26.152c-7.658 0-13.004 6.357-13.004 13.437 0 7.947 6.068 13.438 13.004 13.438h26.152v27.02c0 7.946 6.069 13.437 13.004 13.437 7.658 0 13.005-6.358 13.005-13.438v-27.02h26.152c7.658 0 13.004-6.357 13.004-13.437 0-7.947-6.068-13.437-13.004-13.437 0 0.722-26.152 0.722-26.152 0.722zM52.883 684.16C23.696 684.16 0 659.597 0 629.4s23.84-54.763 52.883-54.763c29.187 0 52.884 24.564 52.884 54.762 0.144 30.92-23.697 54.762-52.884 54.762z m0-27.019c14.594 0 26.153-11.848 26.153-27.02 0-15.026-11.56-27.02-26.153-27.02-14.593 0-26.152 11.85-26.152 27.02 0.144 15.172 11.559 27.02 26.152 27.02z m1407.91-151.425c-13.004 0-24.563-11.126-24.563-25.43 0-14.305 10.692-25.43 24.563-25.43 13.004 0 24.563 11.125 24.563 25.43 0 14.304-10.692 25.43-24.563 25.43z m0-11.848c6.936 0 12.282-5.491 12.282-12.716s-5.346-12.715-12.282-12.715-12.282 5.49-12.282 12.715c0 7.08 6.213 12.716 12.282 12.716zM393.591 94.93c10.692-11.126 28.32-11.126 39.156 0L531 195.64c10.693 11.125 10.693 29.33 0 40.457-10.692 11.125-28.32 11.125-39.156 0l-98.253-100.71c-10.693-11.126-10.693-29.331 0-40.457z m341.43-50.716c15.315 0 27.597 12.715 27.597 28.609v142.756c0 15.894-12.282 28.609-27.598 28.609-15.316 0-27.597-12.715-27.597-28.61V72.824c-0.867-15.172 12.281-28.61 27.597-28.61-0.722 0 0 0 0 0z m342.151 43.636c10.693 11.126 10.693 29.331 0 40.457l-97.386 100.71c-10.692 11.125-28.32 11.125-39.157 0-10.692-11.126-10.692-29.332 0-40.458l97.387-100.71c10.836-11.125 28.464-11.125 39.156 0z" fill="currentColor"/></svg>