<svg fill="currentColor" class="svg_f013ea9dcb__svg_a0d71e7da7__icon" viewBox="0 0 1024 1024" xmlns="http://www.w3.org/2000/svg" width="24" height="24"><path d="M512 1024c-136.768 0-265.344-53.248-362.048-149.952S0 648.768 0 512c0-96.832 27.2-191.104 78.592-272.704A513.28 513.28 0 0 1 282.944 54.016l43.008 85.824a417.92 417.92 0 0 0-166.144 150.656A414.72 414.72 0 0 0 96 512c0 229.376 186.624 416 416 416s416-186.624 416-416c0-78.72-22.08-155.264-63.808-221.504a416.96 416.96 0 0 0-166.144-150.656l43.008-85.824a513.28 513.28 0 0 1 204.352 185.28A510.784 510.784 0 0 1 1024 512c0 136.768-53.248 265.344-149.952 362.048S648.768 1024 512 1024z"/></svg>